<?xml version="1.0" encoding="utf-8"?>
<!-- Generator: Adobe Illustrator 16.0.0, SVG Export Plug-In . SVG Version: 6.00 Build 0)  -->
<!DOCTYPE svg PUBLIC "-//W3C//DTD SVG 1.1//EN" "http://www.w3.org/Graphics/SVG/1.1/DTD/svg11.dtd">
<svg version="1.1" id="Layer_1" xmlns="http://www.w3.org/2000/svg" xmlns:xlink="http://www.w3.org/1999/xlink" x="0px" y="0px"
	 width="156px" height="26px" viewBox="0 0 156 26" enable-background="new 0 0 156 26" xml:space="preserve">
<g>
	<path fill="#00398D" d="M34.512,4.356c0-0.386,0.313-0.699,0.699-0.699h6.397c3.181,0,5.419,1.983,5.419,4.809
		c0,1.857-0.916,3.407-2.62,4.12c1.934,0.712,3.079,2.367,3.079,4.527c0,3.053-2.289,5.113-5.521,5.113h-6.752
		c-0.386,0-0.699-0.313-0.699-0.699V4.356H34.512z M35.988,5.006v6.969h5.85c2.314,0,3.713-1.5,3.713-3.509
		c0-1.959-1.654-3.459-3.968-3.459H35.988z M35.988,13.324v7.556h5.952c2.366,0,4.07-1.629,4.07-3.766
		c0-2.212-1.552-3.791-4.096-3.791H35.988z"/>
	<path fill="#00398D" d="M50.511,20.726c0-2.899,2.748-4.859,5.317-6.69c2.442-1.756,4.782-3.306,4.782-5.57
		c0-2.212-1.654-3.739-4.273-3.739c-1.926,0-3.366,0.968-4.287,2.398c-0.196,0.305-0.598,0.402-0.916,0.229l-0.052-0.029
		c-0.354-0.19-0.478-0.642-0.264-0.983c1.109-1.759,3.037-2.938,5.492-2.938c3.536,0,5.8,2.239,5.8,5.088
		c0,2.875-2.62,4.707-5.189,6.538c-2.442,1.704-4.858,3.384-4.858,5.698v0.102h9.602c0.386,0,0.699,0.313,0.699,0.699
		c0,0.387-0.313,0.699-0.699,0.699H51.21c-0.386,0-0.699-0.313-0.699-0.699V20.726z"/>
	<path fill="#00398D" d="M65.698,4.356c0-0.386,0.313-0.699,0.699-0.699h6.397c3.181,0,5.419,1.983,5.419,4.809
		c0,1.857-0.916,3.407-2.619,4.12c1.933,0.712,3.079,2.367,3.079,4.527c0,3.053-2.289,5.113-5.521,5.113H66.4
		c-0.386,0-0.699-0.313-0.699-0.699V4.356H65.698z M67.172,5.006v6.969h5.85c2.314,0,3.712-1.5,3.712-3.509
		c0-1.959-1.654-3.459-3.968-3.459H67.172z M67.172,13.324v7.556h5.951c2.367,0,4.07-1.629,4.07-3.766
		c0-2.212-1.552-3.791-4.096-3.791H67.172z"/>
	<path fill="#00398D" d="M85.64,19.16l2.329-1.839c0.217-0.173,0.535-0.123,0.691,0.104c0.935,1.352,2.25,2.082,3.795,2.082
		c1.831,0,2.822-1.194,2.822-2.491c0-1.552-1.907-2.062-3.867-2.672c-2.518-0.814-5.265-1.756-5.265-5.291
		c0-2.977,2.597-5.317,6.155-5.317c2.716,0,4.414,0.952,5.831,2.299c0.214,0.203,0.195,0.55-0.039,0.73L96.07,8.299
		c-0.206,0.156-0.5,0.12-0.665-0.083c-0.767-0.942-1.792-1.404-3.081-1.404c-1.704,0-2.596,0.916-2.596,2.111
		c0,1.5,1.756,1.933,3.791,2.619c2.518,0.814,5.366,1.934,5.366,5.495c0,2.925-2.341,5.773-6.411,5.773
		c-3.104,0-5.236-1.236-6.893-2.947C85.392,19.663,85.418,19.335,85.64,19.16z"/>
	<path fill="#00398D" d="M99.395,7.679h2.029c0.02,0,0.034-0.016,0.034-0.034V5.667c0-0.159,0.079-0.308,0.209-0.396l2.5-1.709
		c0.317-0.216,0.751,0.01,0.751,0.396v3.687c0,0.019,0.016,0.034,0.034,0.034h2.515c0.266,0,0.48,0.214,0.48,0.48v2.119
		c0,0.266-0.215,0.48-0.48,0.48h-2.515c-0.019,0-0.034,0.016-0.034,0.034v5.54c0,2.432,0.337,2.942,2.557,2.997
		c0.262,0.005,0.471,0.22,0.471,0.479v2.278c0,0.264-0.215,0.479-0.481,0.479h-0.002c-4.604,0-6.004-1.474-6.004-6.207v-5.562
		c0-0.018-0.015-0.034-0.034-0.034h-2.029c-0.266,0-0.48-0.214-0.48-0.48V8.164C98.914,7.893,99.131,7.679,99.395,7.679z"/>
	<path fill="#00398D" d="M108.607,15.132c0-4.934,3.613-7.76,7.375-7.76c1.926,0,3.629,0.762,4.726,2.02
		c0.021,0.023,0.058,0.01,0.058-0.021V8.157c0-0.263,0.213-0.48,0.479-0.48h2.474c0.266,0,0.48,0.214,0.48,0.48v13.922
		c0,0.267-0.215,0.48-0.48,0.48h-2.474c-0.267,0-0.479-0.214-0.479-0.48v-1.361c0-0.031-0.039-0.045-0.058-0.021
		c-1.099,1.357-2.853,2.166-4.774,2.166C112.346,22.864,108.607,20.016,108.607,15.132z M120.943,15.038
		c-0.021-2.523-1.897-4.535-4.451-4.535c-2.544,0-4.504,2.009-4.504,4.579c0,2.265,1.492,4.104,3.563,4.534
		C118.389,20.204,120.969,17.931,120.943,15.038z"/>
	<path fill="#00398D" d="M125.673,15.132c0-4.35,3.384-7.76,7.733-7.76c3.136,0,5.641,1.691,6.88,4.135
		c0.126,0.248,0.016,0.553-0.242,0.66l-2.196,0.926c-0.23,0.097-0.494,0-0.611-0.219c-0.75-1.398-2.127-2.275-3.805-2.275
		c-2.518,0-4.4,2.009-4.4,4.526c0,2.469,1.883,4.504,4.425,4.504c1.771,0,3.094-0.961,3.83-2.375
		c0.114-0.221,0.383-0.315,0.612-0.217l2.199,0.945c0.254,0.109,0.363,0.409,0.24,0.657c-1.247,2.499-3.673,4.216-6.934,4.216
		C129.057,22.864,125.673,19.405,125.673,15.132z"/>
	<path fill="#00398D" d="M142.332,3.737h2.475c0.266,0,0.479,0.214,0.479,0.48v10.548c0,0.032,0.036,0.044,0.057,0.021l6.134-6.945
		c0.092-0.104,0.223-0.162,0.36-0.162h2.833c0.415,0,0.635,0.49,0.357,0.798l-5.017,5.617c-0.011,0.012-0.011,0.029-0.003,0.043
		l5.403,7.668c0.225,0.318-0.002,0.756-0.392,0.756h-2.666c-0.156,0-0.306-0.078-0.394-0.206l-4.284-6.173
		c-0.014-0.018-0.037-0.018-0.053-0.002l-2.33,2.58c-0.005,0.005-0.007,0.013-0.007,0.021v3.298c0,0.266-0.214,0.48-0.479,0.48
		h-2.475c-0.266,0-0.48-0.215-0.48-0.48V4.215C141.852,3.951,142.066,3.737,142.332,3.737z"/>
	<path fill="#15CB85" d="M16.455,8.208l-7.35,1.895c-3.047,0.767-1.378,3.971,0.049,3.76c1.122-0.17,1.967,0.07,2.507,0.561
		c0.472,0.559,0.686,1.409,0.48,2.525c-0.258,1.42,2.889,3.191,3.755,0.172l2.134-7.284c0.144-0.488,0.005-0.96-0.29-1.294
		C17.417,8.234,16.948,8.081,16.455,8.208z"/>
	<path fill="#15CB85" d="M22.586,11.514h3.084c0.287,0,0.509-0.253,0.464-0.535C25.292,5.422,20.898,1.028,15.34,0.186
		c-0.282-0.042-0.535,0.18-0.535,0.464v3.084c0,0.225,0.159,0.415,0.378,0.459c3.488,0.712,6.233,3.457,6.945,6.945
		C22.171,11.358,22.361,11.514,22.586,11.514z"/>
	<path fill="#00398D" d="M13.25,21.847c-4.79-0.072-8.704-3.986-8.777-8.777c-0.068-4.373,3.014-8.039,7.125-8.876
		c0.219-0.044,0.378-0.235,0.378-0.459V0.651c0-0.287-0.253-0.509-0.538-0.464C5.163,1.139,0.372,6.618,0.502,13.188
		c0.136,6.894,5.737,12.495,12.631,12.63c6.572,0.129,12.048-4.662,13.001-10.937c0.042-0.282-0.18-0.538-0.464-0.538h-3.084
		c-0.225,0-0.415,0.16-0.459,0.379C21.287,18.833,17.624,21.915,13.25,21.847z"/>
</g>
</svg>
