<svg width="24" height="24" viewBox="0 0 24 24" fill="none" xmlns="http://www.w3.org/2000/svg">
<path d="M3.68802 24C3.45526 23.999 3.22646 23.9455 3.02231 23.8444C2.81816 23.7432 2.64512 23.5976 2.51885 23.4206C2.39258 23.2437 2.31707 23.0411 2.29916 22.8311C2.28124 22.6211 2.32149 22.4104 2.41626 22.218L4.02704 18.966C2.75845 17.9506 1.74324 16.7025 1.04891 15.3047C0.354574 13.9068 -0.00297856 12.3912 1.86888e-05 10.8587C1.86888e-05 4.87127 5.38315 0 12 0C18.6169 0 24 4.87127 24 10.8587C24 16.8461 18.6169 21.7174 12 21.7174C10.8425 21.7163 9.69132 21.5629 8.58264 21.2619L4.47167 23.7803C4.24069 23.9229 3.96767 23.9995 3.68802 24ZM12 1.51517C9.85853 1.51404 7.7697 2.1158 6.02308 3.23702C4.27647 4.35824 2.95859 5.94339 2.25213 7.77272C1.54568 9.60205 1.48564 11.5849 2.08034 13.4465C2.67505 15.3081 3.89504 16.9562 5.57119 18.1623L6.07864 18.5285L4.34549 22.0279L8.32278 19.5914L8.71549 19.7107C10.1342 20.142 11.6396 20.289 13.1273 20.1415C14.615 19.994 16.0495 19.5555 17.3313 18.8564C18.6131 18.1574 19.7116 17.2145 20.5507 16.093C21.3897 14.9716 21.9493 13.6985 22.1906 12.3619C22.4318 11.0254 22.349 9.65732 21.9479 8.35259C21.5468 7.04786 20.837 5.83765 19.8676 4.80585C18.8982 3.77405 17.6925 2.94533 16.334 2.37711C14.9754 1.8089 13.4966 1.51479 12 1.51517Z" fill="#011242"/>
<path d="M11.9999 12.3242C13.0041 12.3242 13.8181 11.5982 13.8181 10.7026C13.8181 9.80702 13.0041 9.08099 11.9999 9.08099C10.9958 9.08099 10.1818 9.80702 10.1818 10.7026C10.1818 11.5982 10.9958 12.3242 11.9999 12.3242Z" fill="#011242"/>
<path d="M6.909 12.3242C7.91315 12.3242 8.72718 11.5982 8.72718 10.7026C8.72718 9.80702 7.91315 9.08099 6.909 9.08099C5.90485 9.08099 5.09082 9.80702 5.09082 10.7026C5.09082 11.5982 5.90485 12.3242 6.909 12.3242Z" fill="#011242"/>
<path d="M17.0911 12.3242C18.0953 12.3242 18.9093 11.5982 18.9093 10.7026C18.9093 9.80702 18.0953 9.08099 17.0911 9.08099C16.087 9.08099 15.2729 9.80702 15.2729 10.7026C15.2729 11.5982 16.087 12.3242 17.0911 12.3242Z" fill="#011242"/>
</svg>
