<?xml version="1.0" encoding="utf-8"?>
<!-- Generator: Adobe Illustrator 16.0.0, SVG Export Plug-In . SVG Version: 6.00 Build 0)  -->
<!DOCTYPE svg PUBLIC "-//W3C//DTD SVG 1.1//EN" "http://www.w3.org/Graphics/SVG/1.1/DTD/svg11.dtd">
<svg version="1.1" id="Layer_1" xmlns="http://www.w3.org/2000/svg" xmlns:xlink="http://www.w3.org/1999/xlink" x="0px" y="0px"
	 width="20px" height="20px" viewBox="0 0 20 20" enable-background="new 0 0 20 20" xml:space="preserve">
<g>
	<path fill="#FFFFFF" d="M10,0C4.477,0,0,4.477,0,10c0,5.523,4.477,10,10,10c5.521,0,10-4.477,10-10C20,4.477,15.521,0,10,0z
		 M15.126,16.139c0.001-0.021,0.005-0.042,0.006-0.064c0.011,0.012,0.024,0.021,0.035,0.033
		C15.154,16.118,15.14,16.128,15.126,16.139z M16.521,14.634c-0.834-0.837-1.828-1.498-2.918-1.95
		C12.512,12.23,11.342,11.998,10.16,12c-1.225-0.002-2.438,0.248-3.564,0.732s-2.14,1.194-2.98,2.088
		c-0.89-1.178-1.437-2.582-1.579-4.053C1.895,9.296,2.164,7.814,2.813,6.486c0.65-1.328,1.654-2.449,2.902-3.241
		c1.249-0.792,2.692-1.223,4.17-1.244c1.477-0.022,2.932,0.367,4.203,1.122c1.27,0.755,2.307,1.848,2.995,3.156
		c0.687,1.309,0.998,2.782,0.899,4.257C17.883,12.011,17.377,13.43,16.521,14.634z"/>
	<path fill="#FFFFFF" d="M10,3C8.939,3,7.922,3.421,7.171,4.171C6.421,4.922,6,5.939,6,7s0.421,2.078,1.171,2.829
		C7.922,10.578,8.939,11,10,11c1.063,0,2.078-0.422,2.829-1.171C13.579,9.078,14,8.061,14,7s-0.421-2.078-1.171-2.829
		C12.078,3.421,11.063,3,10,3z"/>
</g>
</svg>
